<?xml version="1.0" encoding="UTF-8"?>
<svg xmlns="http://www.w3.org/2000/svg" viewBox="0 0 880 550">
  <defs>
    <style>
      .cls-1, .cls-2, .cls-3, .cls-4, .cls-5, .cls-6, .cls-7, .cls-8, .cls-9, .cls-10, .cls-11, .cls-12, .cls-13, .cls-14, .cls-15, .cls-16, .cls-17, .cls-18 {
        stroke-linejoin: round;
      }

      .cls-1, .cls-2, .cls-3, .cls-4, .cls-5, .cls-6, .cls-7, .cls-8, .cls-9, .cls-11, .cls-12, .cls-13, .cls-14, .cls-15, .cls-16, .cls-17 {
        stroke: #4e3448;
      }

      .cls-1, .cls-2, .cls-3, .cls-4, .cls-5, .cls-6, .cls-8, .cls-9, .cls-10, .cls-11, .cls-13, .cls-14, .cls-15, .cls-16, .cls-17, .cls-18 {
        stroke-width: .68px;
      }

      .cls-1, .cls-6, .cls-16 {
        stroke-linecap: round;
      }

      .cls-1, .cls-8, .cls-10 {
        fill: #e8d8cd;
      }

      .cls-2, .cls-18 {
        fill: #beab9b;
      }

      .cls-3, .cls-4, .cls-7, .cls-9, .cls-12, .cls-13, .cls-15, .cls-16 {
        fill: none;
      }

      .cls-4 {
        stroke-dasharray: 0 0 6.52 6.52;
      }

      .cls-5 {
        opacity: .6;
      }

      .cls-5, .cls-17 {
        fill: #fff;
      }

      .cls-6 {
        fill: #5c3d54;
      }

      .cls-7, .cls-12 {
        stroke-width: .77px;
      }

      .cls-9 {
        stroke-dasharray: 0 0 11.35 11.35;
      }

      .cls-10, .cls-18 {
        stroke: #4b2c39;
      }

      .cls-11 {
        fill: #f9a739;
      }

      .cls-19 {
        fill: #f5f0ec;
      }

      .cls-12 {
        stroke-dasharray: 0 0 12.57 12.57;
      }

      .cls-13 {
        stroke-dasharray: 0 0 13.66 13.66;
      }

      .cls-14 {
        fill: #8b5472;
      }

      .cls-15 {
        stroke-dasharray: 0 0 12.5 12.5;
      }

      .cls-20 {
        fill: #1b1f23;
        fill-rule: evenodd;
      }
    </style>
  </defs>
  <g id="Layer_2" data-name="Layer 2">
    <rect class="cls-19" x="-24.48" y="-23.94" width="928.95" height="597.89"/>
  </g>
  <g id="Layer_1" data-name="Layer 1">
    <g>
      <g>
        <g>
          <polygon class="cls-8" points="439.96 430.5 283.58 520.63 202.81 473.92 359.18 383.79 439.96 430.5"/>
          <polygon class="cls-8" points="439.96 417.44 283.58 507.58 202.81 460.87 359.18 370.73 439.96 417.44"/>
          <polygon class="cls-14" points="202.81 460.87 202.81 473.92 283.58 520.63 283.58 507.58 202.81 460.87"/>
          <polygon class="cls-14" points="439.96 417.44 439.96 430.5 283.58 520.63 283.58 507.58 439.96 417.44"/>
          <path class="cls-11" d="m279.79,490.32l-54.09-31.23c-1.02-.59-.9-1.62.29-2.31h0c1.18-.68,2.97-.76,3.99-.17l54.09,31.23c1.02.59.9,1.62-.29,2.31h0c-1.18.68-2.97.76-3.99.17Z"/>
          <path class="cls-11" d="m289.41,484.76l-54.09-31.23c-1.02-.59-.9-1.62.29-2.31h0c1.18-.68,2.97-.76,3.99-.17l54.09,31.23c1.02.59.9,1.62-.29,2.31h0c-1.18.68-2.97.76-3.99.17Z"/>
          <path class="cls-11" d="m298.4,479.49l-54.09-31.23c-1.02-.59-.9-1.62.29-2.31h0c1.18-.68,2.97-.76,3.99-.17l54.09,31.23c1.02.59.9,1.62-.29,2.31h0c-1.18.68-2.97.76-3.99.17Z"/>
          <path class="cls-11" d="m251.54,528.35l-48.12-27.72c-2.16-1.25-1.89-3.43.61-4.88h0c2.5-1.44,6.28-1.6,8.44-.35l48.12,27.72c2.16,1.25,1.89,3.43-.61,4.88h0c-2.5,1.44-6.28,1.6-8.44.35Z"/>
          <path class="cls-14" d="m274.24,457.77c0-4.64-1.64-7.9-4.3-9.41l-29.51-17.05c2.65,1.51,4.3,4.77,4.3,9.42h0s0,29.34,0,29.34l29.51,17.04v-29.34h0Z"/>
          <path class="cls-8" d="m240.44,431.31c-2.65-1.51-6.32-1.28-10.37,1.06h0c-8.1,4.68-14.67,16-14.67,25.3v49.87s29.51,16.99,29.51,16.99v-49.82c0-9.29,6.57-20.62,14.67-25.3h0c4.05-2.34,7.72-2.57,10.37-1.06l-29.51-17.05Z"/>
          <path class="cls-16" d="m239.12,465.16c.89-8.54,6.58-17.37,14.25-21.03h0"/>
          <g>
            <path class="cls-11" d="m365.35,384.38h0v-12.98h-12.07v12.96s0,.01,0,.02h0c0,.89.6,1.78,1.78,2.46,2.37,1.37,6.19,1.37,8.54.02,1.18-.68,1.76-1.58,1.75-2.47Z"/>
            <ellipse class="cls-11" cx="359.31" cy="371.4" rx="3.49" ry="6.04" transform="translate(-14.03 728.69) rotate(-89.69)"/>
          </g>
          <g>
            <path class="cls-11" d="m423.21,417.78h0v-12.98h-12.07v12.96s0,.01,0,.02h0c0,.89.6,1.78,1.78,2.46,2.37,1.37,6.19,1.37,8.54.02,1.18-.68,1.76-1.58,1.75-2.47Z"/>
            <ellipse class="cls-11" cx="417.18" cy="404.8" rx="3.49" ry="6.04" transform="translate(10.12 819.77) rotate(-89.69)"/>
          </g>
          <polygon class="cls-8" points="407.41 427.6 327.94 473.47 263.45 436.19 342.93 390.33 407.41 427.6"/>
          <polygon class="cls-8" points="407.41 422.04 327.94 467.9 263.45 430.63 342.93 384.76 407.41 422.04"/>
          <polygon class="cls-6" points="263.45 430.63 263.45 436.19 327.94 473.47 327.94 467.9 263.45 430.63"/>
          <polygon class="cls-6" points="407.41 422.04 407.41 427.6 327.94 473.47 327.94 467.9 407.41 422.04"/>
          <g>
            <polygon class="cls-11" points="366.89 418.98 339.72 403.29 350.15 397.27 377.32 412.95 366.89 418.98"/>
            <polygon class="cls-17" points="357.83 433.92 330.67 418.24 354.3 404.59 381.46 420.28 357.83 433.92"/>
            <polygon class="cls-14" points="329.43 450.27 302.24 434.65 325.86 421.01 353.05 436.63 329.43 450.27"/>
            <polygon class="cls-17" points="305.16 444.9 286.41 434.07 310.03 420.43 328.79 431.26 305.16 444.9"/>
            <polygon class="cls-11" points="322.89 442.19 311.44 435.58 340.03 419.07 351.49 425.68 322.89 442.19"/>
            <polygon class="cls-17" points="329.8 414.72 318.34 408.1 329.72 401.53 341.18 408.14 329.8 414.72"/>
          </g>
          <ellipse class="cls-11" cx="353.98" cy="417.34" rx="2.62" ry="4.54" transform="translate(-65.27 769.05) rotate(-89.69)"/>
          <ellipse class="cls-11" cx="342.7" cy="442.61" rx="2.62" ry="4.54" transform="translate(-101.76 782.9) rotate(-89.69)"/>
          <ellipse class="cls-11" cx="310.1" cy="420.43" rx="2.62" ry="4.54" transform="translate(-112.01 728.25) rotate(-89.69)"/>
          <ellipse class="cls-11" cx="287.32" cy="424.66" rx="2.62" ry="4.54" transform="translate(-138.89 709.67) rotate(-89.69)"/>
          <line class="cls-1" x1="219.91" y1="499.63" x2="239.59" y2="511.67"/>
          <line class="cls-1" x1="219.91" y1="488.81" x2="239.59" y2="500.85"/>
          <polygon class="cls-14" points="239.59 489.48 219.91 477.44 219.91 469.04 239.59 481.07 239.59 489.48"/>
          <g>
            <line class="cls-8" x1="230.44" y1="439.15" x2="233.62" y2="456.12"/>
            <line class="cls-8" x1="225.18" y1="449.7" x2="240.98" y2="443.14"/>
          </g>
        </g>
        <g>
          <g>
            <polygon class="cls-8" points="587.79 153.44 496.19 100.55 496.19 32.16 587.79 85.05 587.79 153.44"/>
            <polygon class="cls-17" points="580.6 157.46 489 104.58 489 36.18 580.6 89.07 580.6 157.46"/>
            <path class="cls-8" d="m534.8,62.54s.07,68.43,0,68.39-45.65-26.35-45.65-26.35V36.18s45.65,26.35,45.65,26.35Z"/>
            <line class="cls-8" x1="496.5" y1="55.09" x2="525.5" y2="71.83"/>
            <polygon class="cls-11" points="525.5 92.24 496.5 75.49 496.5 69.94 525.5 86.69 525.5 92.24"/>
            <polygon class="cls-11" points="525.5 104.15 496.5 87.41 496.5 81.86 525.5 98.6 525.5 104.15"/>
            <polygon class="cls-11" points="525.5 115.1 496.5 98.35 496.5 92.8 525.5 109.54 525.5 115.1"/>
            <polygon class="cls-14" points="543.99 136.24 534.8 130.93 534.8 101.69 543.99 106.99 543.99 136.24"/>
            <polygon class="cls-14" points="553.18 141.54 543.99 136.24 543.99 80.12 553.18 85.43 553.18 141.54"/>
            <polygon class="cls-14" points="562.37 146.85 553.18 141.54 553.18 94.8 562.37 100.11 562.37 146.85"/>
            <polygon class="cls-14" points="571.56 152.15 562.37 146.85 562.37 115.3 571.56 120.61 571.56 152.15"/>
          </g>
          <polygon class="cls-14" points="496.19 32.16 489.15 36.18 580.6 89.07 587.79 85.05 496.19 32.16"/>
          <polygon class="cls-14" points="580.6 89.07 587.79 85.05 587.79 153.44 580.6 157.46 580.6 89.07"/>
        </g>
        <path class="cls-3" d="m325.34,301.05l40.49,16.7c9.29,3.83,19.02-4.44,16.74-14.22h0c-2.76-11.83,7.21-22.74,19.24-21.06l25.93,3.62c3.32.46,6.29-2.12,6.29-5.47h0c0-8.13,7.96-13.87,15.67-11.31l43.13,14.3"/>
        <g>
          <polygon class="cls-8" points="478.31 223.52 395.23 271.49 358.47 250.3 441.55 202.33 478.31 223.52"/>
          <polygon class="cls-8" points="478.31 211.48 395.23 259.44 358.47 238.25 441.55 190.28 478.31 211.48"/>
          <g>
            <g>
              <g>
                <polygon class="cls-8" points="439.92 150.45 457.28 160.76 457.28 212.22 439.92 201.91 439.92 150.45"/>
                <polygon class="cls-2" points="379.34 185.38 379.34 236.91 439.92 201.91 439.92 150.45 379.34 185.38"/>
              </g>
              <g>
                <polygon class="cls-8" points="438.17 181.86 384.68 212.74 384.68 135.22 438.17 104.34 438.17 181.86"/>
                <path class="cls-8" d="m430.08,180.43l-37.31,21.54c-1.53.88-2.77-.05-2.77-2.1v-57.94c0-2.04,1.24-4.41,2.77-5.3l37.31-21.54c1.53-.88,2.77.05,2.77,2.1v57.94c0,2.04-1.24,4.41-2.77,5.3Z"/>
                <g>
                  <line class="cls-8" x1="396.07" y1="142.56" x2="402.75" y2="146.37"/>
                  <line class="cls-8" x1="402.75" y1="138.7" x2="396.07" y2="150.23"/>
                </g>
                <g>
                  <line class="cls-8" x1="419.04" y1="152.22" x2="425.72" y2="156.03"/>
                  <line class="cls-8" x1="425.72" y1="148.36" x2="419.04" y2="159.89"/>
                </g>
                <ellipse class="cls-8" cx="411.64" cy="149.02" rx="4.62" ry="2.67" transform="translate(75.24 429.18) rotate(-59.69)"/>
                <g>
                  <path class="cls-8" d="m399.41,150.45v8.67c0,4.67,3.3,6.55,7.36,4.2h0s3.37-1.94,3.37-1.94"/>
                  <polyline class="cls-8" points="408.28 160.32 410.14 161.38 408.28 164.59"/>
                </g>
              </g>
              <g>
                <polygon class="cls-8" points="442.29 184.44 388.81 215.32 388.81 137.8 442.29 106.92 442.29 184.44"/>
                <g>
                  <line class="cls-8" x1="400.2" y1="145.14" x2="406.88" y2="148.95"/>
                  <line class="cls-8" x1="406.88" y1="141.28" x2="400.2" y2="152.81"/>
                </g>
                <g>
                  <line class="cls-8" x1="423.16" y1="154.79" x2="429.85" y2="158.6"/>
                  <line class="cls-8" x1="429.85" y1="150.94" x2="423.16" y2="162.46"/>
                </g>
                <ellipse class="cls-8" cx="415.76" cy="151.6" rx="4.62" ry="2.67" transform="translate(75.06 434.02) rotate(-59.69)"/>
                <g>
                  <path class="cls-8" d="m403.54,153.03v8.67c0,4.67,3.3,6.55,7.36,4.2h0s3.37-1.94,3.37-1.94"/>
                  <polyline class="cls-8" points="412.4 162.9 414.27 163.96 412.4 167.17"/>
                </g>
              </g>
              <g>
                <polygon class="cls-8" points="446.42 187.02 392.93 217.9 392.93 140.37 446.42 109.49 446.42 187.02"/>
                <path class="cls-8" d="m438.33,185.59l-37.31,21.54c-1.53.88-2.77-.05-2.77-2.1v-57.94c0-2.04,1.24-4.41,2.77-5.3l37.31-21.54c1.53-.88,2.77.05,2.77,2.1v57.94c0,2.04-1.24,4.41-2.77,5.3Z"/>
                <g>
                  <line class="cls-8" x1="404.32" y1="147.71" x2="411" y2="151.52"/>
                  <line class="cls-8" x1="411" y1="143.86" x2="404.32" y2="155.38"/>
                </g>
                <g>
                  <line class="cls-8" x1="427.29" y1="157.37" x2="433.97" y2="161.18"/>
                  <line class="cls-8" x1="433.97" y1="153.51" x2="427.29" y2="165.04"/>
                </g>
                <ellipse class="cls-8" cx="419.89" cy="154.17" rx="4.62" ry="2.67" transform="translate(74.88 438.85) rotate(-59.69)"/>
                <g>
                  <path class="cls-8" d="m407.66,155.61v8.67c0,4.67,3.3,6.55,7.36,4.2h0s3.37-1.94,3.37-1.94"/>
                  <polyline class="cls-8" points="416.53 165.47 418.39 166.54 416.53 169.75"/>
                </g>
              </g>
              <g>
                <polygon class="cls-8" points="450.54 189.6 397.06 220.47 397.06 142.95 450.54 112.07 450.54 189.6"/>
                <path class="cls-17" d="m442.46,188.17l-37.31,21.54c-1.53.88-2.77-.05-2.77-2.1v-57.94c0-2.04,1.24-4.41,2.77-5.3l37.31-21.54c1.53-.88,2.77.05,2.77,2.1v57.94c0,2.04-1.24,4.41-2.77,5.3Z"/>
                <g>
                  <line class="cls-8" x1="408.45" y1="150.29" x2="415.13" y2="154.1"/>
                  <line class="cls-8" x1="415.13" y1="146.43" x2="408.45" y2="157.96"/>
                </g>
              </g>
              <polygon class="cls-8" points="396.7 195.69 396.7 247.22 457.28 212.22 457.28 160.76 396.7 195.69"/>
              <polygon class="cls-2" points="379.34 185.38 396.7 195.69 396.7 247.22 379.34 236.91 379.34 185.38"/>
            </g>
            <polygon class="cls-11" points="412.4 201.65 412.4 227.12 444.2 208.75 444.2 183.29 412.4 201.65"/>
          </g>
          <polygon class="cls-14" points="417.46 183.72 417.46 235.22 396.7 247.22 396.7 195.69 417.46 183.72"/>
          <polygon class="cls-2" points="358.47 238.25 358.47 250.3 395.23 271.49 395.23 259.44 358.47 238.25"/>
          <polygon class="cls-2" points="478.31 211.48 478.31 223.52 395.23 271.49 395.23 259.44 478.31 211.48"/>
        </g>
        <g>
          <polygon class="cls-2" points="607.93 191.96 607.93 254.45 555.25 284.94 555.25 363.96 633.58 318.63 633.58 240.38 633.58 239.61 633.58 177.13 607.93 191.96"/>
          <polygon class="cls-8" points="474.9 238.58 555.25 284.94 555.25 363.96 474.9 317.59 474.9 238.58"/>
          <polygon class="cls-2" points="527.58 208.09 607.93 254.45 555.25 284.94 474.9 238.58 527.58 208.09"/>
          <polygon class="cls-8" points="527.58 145.59 607.93 191.96 607.93 254.45 527.58 208.09 527.58 145.59"/>
          <polygon class="cls-8" points="553.23 130.76 633.58 177.13 607.93 191.96 527.58 145.59 553.23 130.76"/>
        </g>
        <polygon class="cls-8" points="555.25 321.62 555.25 284.94 633.56 239.52 633.58 275.89 555.25 321.62"/>
        <polygon class="cls-8" points="555.25 335.28 555.25 284.94 474.9 238.58 474.9 288.61 555.25 335.28"/>
        <g>
          <path class="cls-11" d="m620.2,318.9l6.37-11.02-10.92-6.31s0,0,0,0h-.01s0,0,0,0c-.82-.46-1.94-.38-3.18.33-2.49,1.44-4.51,4.93-4.51,7.79,0,1.41.49,2.41,1.29,2.88h0s.03.02.03.02c0,0,0,0,0,0l10.94,6.32Z"/>
          <ellipse class="cls-11" cx="623.39" cy="313.39" rx="6.37" ry="3.67" transform="translate(38.22 693.41) rotate(-59.69)"/>
        </g>
        <g>
          <path class="cls-11" d="m601.58,329.58l6.37-11.02-10.92-6.31s0,0,0,0h-.01s0,0,0,0c-.82-.46-1.94-.38-3.18.33-2.49,1.44-4.51,4.93-4.51,7.79,0,1.41.49,2.41,1.29,2.88h0s.03.02.03.02c0,0,0,0,0,0l10.94,6.32Z"/>
          <ellipse class="cls-11" cx="604.78" cy="324.07" rx="6.37" ry="3.67" transform="translate(19.78 682.62) rotate(-59.69)"/>
        </g>
        <g>
          <path class="cls-11" d="m580.73,341.7l6.37-11.02-10.92-6.31s0,0,0,0h-.01s0,0,0,0c-.82-.46-1.94-.38-3.18.33-2.49,1.44-4.51,4.93-4.51,7.79,0,1.41.49,2.41,1.29,2.88h0s.03.02.03.02c0,0,0,0,0,0l10.94,6.32Z"/>
          <ellipse class="cls-11" cx="583.93" cy="336.2" rx="6.37" ry="3.67" transform="translate(-1.01 670.63) rotate(-59.69)"/>
        </g>
        <g>
          <path class="cls-17" d="m563.43,149.36v-5.22h-13.82v5.22h0c0,.34.07.68.23,1.02,1,2.13,4.8,3.4,8.48,2.84,3.1-.47,5.12-2.09,5.1-3.86Z"/>
          <ellipse class="cls-17" cx="556.52" cy="144.14" rx="3.99" ry="6.91" transform="translate(409.37 699.87) rotate(-89.69)"/>
        </g>
        <g>
          <path class="cls-17" d="m609.89,174.89v-5.22h-13.82v5.22h0c0,.34.07.68.23,1.02,1,2.13,4.8,3.4,8.48,2.84,3.1-.47,5.12-2.09,5.1-3.86Z"/>
          <ellipse class="cls-17" cx="602.98" cy="169.67" rx="3.99" ry="6.91" transform="translate(430.05 771.72) rotate(-89.69)"/>
        </g>
        <line class="cls-1" x1="553.76" y1="142.7" x2="558.8" y2="145.38"/>
        <line class="cls-1" x1="605.75" y1="168.06" x2="600.34" y2="171.2"/>
        <g>
          <polygon class="cls-8" points="285.17 295.1 245 271.91 284.92 248.86 325.34 271.91 285.17 295.1"/>
          <polygon class="cls-17" points="285.17 341.2 245 318.01 245 271.91 285.17 295.11 285.17 341.2"/>
          <polygon class="cls-8" points="325.34 318.01 285.17 341.2 285.17 295.1 325.34 271.91 325.34 318.01"/>
          <polygon class="cls-11" points="245 283.45 285.05 306.76 325.34 283.45 325.34 271.91 285.17 295.1 245 271.91 245 283.45"/>
          <polygon class="cls-14" points="294.6 335.75 294.6 289.66 254.63 266.35 245 271.91 285.17 295.1 285.17 341.2 294.6 335.75"/>
        </g>
        <g>
          <polygon class="cls-8" points="670.29 384.42 630.12 361.23 670.04 338.18 710.46 361.23 670.29 384.42"/>
          <polygon class="cls-8" points="670.29 430.52 630.12 407.33 630.12 361.23 670.29 384.43 670.29 430.52"/>
          <polygon class="cls-8" points="710.46 407.33 670.29 430.52 670.29 384.42 710.46 361.23 710.46 407.33"/>
          <polygon class="cls-11" points="710.46 372.77 670.17 396.08 630.12 372.77 630.12 361.23 670.29 384.42 710.46 361.23 710.46 372.77"/>
          <polyline class="cls-3" points="639.75 355.67 679.72 378.98 679.72 425.07"/>
        </g>
        <path class="cls-16" d="m645.31,352.47h0c-3.18-1.72-3.5-6.16-.61-8.33l3.74-2.8c5.9-4.42,2.28-13.8-5.06-13.1l-8.11.77c-3.2.3-5.97-2.21-5.97-5.43h0c0-4.22-2.25-8.11-5.9-10.22h0"/>
        <path class="cls-16" d="m604.78,324.07h0c3.65,2.11,5.9,6.01,5.9,10.22h0c0,3.54,2.37,6.63,5.79,7.55h0c2.51.68,3.01,4.03.81,5.41h0c-2.6,1.63-2.88,5.31-.56,7.31l4.4,3.8c2.33,2.01,1.41,5.81-1.58,6.53l-4.87,1.17c-6.61,1.59-8.97,9.77-4.23,14.63l2.39,2.45c4.53,4.65,2.97,12.4-3.01,14.94l-12.09,5.13c-8.36,3.54-11.81,13.54-7.42,21.49h0"/>
        <path class="cls-16" d="m583.92,336.2h0c3.65,2.11,5.9,6.01,5.9,10.22v1.65c0,2.69-1.42,5.19-3.74,6.56l-2.9,1.72c-2.42,1.43-1.65,5.12,1.14,5.46l2.02.25c2.67.33,4.58,2.76,4.26,5.43h0c-.38,3.19-3.16,5.55-6.38,5.39l-6.5-.32c-2.9-.14-4.11,3.65-1.66,5.21h0c4.91,3.15,3.09,10.73-2.72,11.29l-23.23,2.27c-2.96.29-5.55,1.65-7.44,3.66-6.99,7.46-15.37,13.48-25.09,16.64l-1.17.38c-4.18,1.36-8.68,1.33-12.84-.09l-47.97-16.33c-5.66-1.93-11.87.53-14.68,5.81l-2.44,4.58c-1.94,3.65-7.08,3.89-9.36.44l-6.2-9.39c-1.97-2.32-5.76-.92-5.76,2.12v5.62"/>
        <g>
          <polygon class="cls-8" points="555.25 450.81 515.08 427.62 555 404.57 595.42 427.62 555.25 450.81"/>
          <polygon class="cls-8" points="555.25 496.9 515.08 473.71 515.08 427.62 555.25 450.81 555.25 496.9"/>
          <polygon class="cls-8" points="595.42 473.71 555.25 496.9 555.25 450.81 595.42 427.62 595.42 473.71"/>
          <polygon class="cls-14" points="555.25 462.53 515.08 439.15 515.08 473.71 555.25 496.9 555.25 462.53"/>
          <polygon class="cls-11" points="564.68 491.46 564.68 445.36 524.71 422.06 515.08 427.62 555.25 450.81 555.25 496.9 564.68 491.46"/>
        </g>
        <g>
          <path class="cls-11" d="m380.67,217.6l-6.37-11.02,10.92-6.31s0,0,0,0h.01s0,0,0,0c.82-.46,1.94-.38,3.18.33,2.49,1.44,4.51,4.93,4.51,7.79,0,1.41-.49,2.41-1.29,2.88h0s-.03.02-.03.02c0,0,0,0,0,0l-10.94,6.32Z"/>
          <ellipse class="cls-11" cx="377.47" cy="212.1" rx="3.67" ry="6.37" transform="translate(-55.44 219.5) rotate(-30.31)"/>
        </g>
        <path class="cls-16" d="m377.47,212.1h0c-7.23,3.55-11.81,10.9-11.81,18.96v28.56c0,6.53-4.5,12.21-10.86,13.71h0c-5.63,1.32-7.22,8.58-2.65,12.13l4.97,3.87c5.34,4.16,6.55,11.73,2.78,17.35l-4.23,6.29c-4.05,6.03-.86,14.25,6.2,15.96l26.01,6.31c7.45,1.81,15.22-1.33,19.32-7.8l11.16-17.6c3.53-5.57,5.24-12.11,4.87-18.69l-.44-7.82c-.64-11.52,7.07-21.85,18.3-24.51h0"/>
        <g>
          <path class="cls-8" d="m529.87,390.23h0v-50.1h-31.07v50.09h0s0,.01,0,.01c.02,2.29,1.55,4.57,4.58,6.32,6.08,3.51,15.92,3.53,21.97.04,3.04-1.75,4.54-4.06,4.51-6.36Z"/>
          <path class="cls-14" d="m529.87,351.5c.01,2.3-1.5,4.59-4.55,6.33-6.07,3.46-15.9,3.39-21.97-.16-3.02-1.77-4.54-4.06-4.55-6.35v29.32c.02,2.29,1.45,4.57,4.48,6.32,6.08,3.51,15.92,3.53,21.97.04,3.04-1.75,4.54-4.02,4.51-6.33l.1-29.18Z"/>
          <ellipse class="cls-2" cx="514.33" cy="340.13" rx="8.97" ry="15.53" transform="translate(171.42 852.61) rotate(-89.69)"/>
          <path class="cls-8" d="m521.47,338.43c0,5.52-14.26,5.52-14.26,0v-83.8c0-3.94,3.19-7.13,7.13-7.13h0c3.94,0,7.13,3.19,7.13,7.13v83.8Z"/>
          <path class="cls-11" d="m525.32,357.83c-1.52.87-3.27,1.51-5.15,1.93l-.16,29.24c1.87-.42,3.63-1.07,5.15-1.93,3.05-1.74,4.62-4.12,4.61-6.42l.1-29.15c.01,2.3-1.5,4.6-4.55,6.34Z"/>
        </g>
        <g>
          <path class="cls-8" d="m463.76,351.83h0v-50.1h-31.07v50.09h0s0,.01,0,.01c.02,2.29,1.55,4.57,4.58,6.32,6.08,3.51,15.92,3.53,21.97.04,3.04-1.75,4.54-4.06,4.51-6.36Z"/>
          <ellipse class="cls-2" cx="448.23" cy="301.73" rx="8.97" ry="15.53" transform="translate(144.08 748.31) rotate(-89.69)"/>
          <path class="cls-8" d="m455.36,301.07c0,5.64-14.26,5.64-14.26,0v-83.8c0-3.94,3.19-7.13,7.13-7.13h0c3.94,0,7.13,3.19,7.13,7.13v83.8Z"/>
        </g>
        <g>
          <polygon class="cls-8" points="434.03 199.43 514.33 245.79 514.33 292.02 434.03 245.65 434.03 199.43"/>
          <polygon class="cls-8" points="594.14 199.72 594.14 245.94 514.33 292.02 514.33 245.79 594.14 199.72"/>
          <path class="cls-2" d="m513.83,153.35l-79.81,46.08,80.31,46.37,79.81-46.08-80.31-46.37Z"/>
        </g>
        <g>
          <polygon class="cls-6" points="584.21 235.8 524.27 270.4 524.27 260.49 584.21 225.89 584.21 235.8"/>
          <polygon class="cls-14" points="590.73 235.94 530.79 270.54 524.27 260.49 584.21 225.89 590.73 235.94"/>
        </g>
        <g>
          <polygon class="cls-6" points="504.15 270.42 444.21 235.81 444.21 225.9 504.15 260.51 504.15 270.42"/>
          <polygon class="cls-14" points="498.11 270.42 438.17 235.81 444.21 225.9 504.15 260.51 498.11 270.42"/>
        </g>
        <g>
          <path class="cls-8" d="m562.38,199.43h0v-13.8h-6.47c-2.09-2.09-4.68-4.07-7.78-5.86-18.92-10.93-49.51-10.98-68.31-.12-3.16,1.82-5.77,3.84-7.86,5.99h-6.17v13.63s0,.1,0,.15v.02h0c.08,7.11,4.83,14.22,14.25,19.66,18.92,10.92,49.51,10.98,68.31.12,9.44-5.45,14.11-12.62,14.04-19.78Z"/>
          <ellipse class="cls-17" cx="514.08" cy="185.63" rx="27.89" ry="48.31" transform="translate(325.67 698.7) rotate(-89.69)"/>
          <path class="cls-20" d="m538.97,171.14c-13.84-7.99-36.18-8.03-49.93-.09-11.01,6.36-13.14,15.87-6.49,23.52,1.03.85,2.25.69,2.9.31.59-.34,2.52-1.49,4.6-2.69-7.44-2.97-6.4-5.45-5.5-6.55.43-.58,1.42-2.56.95-3.51-.41-.78-.51-2.16,1.62-.97,2,1.12,1.58,2.99,1.3,3.7-1.51,3.47,3.15,4.94,5.24,5.4,1.84-.81,3.58-1.06,4.92-1-4.95-3.58-8.63-8.18.89-13.67,2.71-1.56,5.92-2.3,9.25-2.38.37-.5,2.05-2.48,6.85-3.66,0,0,2.75.83,4.34,5.45,2.56.83,4.97,1.9,7.1,3.13s3.98,2.62,5.42,4.1c8.02.9,9.44,2.5,9.44,2.5-2.04,2.77-5.47,3.74-6.34,3.95-.15,1.93-1.38,3.76-4.12,5.34-9.55,5.51-17.52,3.36-23.71.5.13.97-.58,2.29-2.91,3.63-3.33,1.92-6.03,3.45-6.87,3.93-.65.38-.96,1.1.54,1.68,13.19,3.81,29.69,2.56,40.67-3.78,13.75-7.94,13.68-20.84-.16-28.83Z"/>
        </g>
        <g>
          <line class="cls-1" x1="572.05" y1="88.47" x2="577.07" y2="97.13"/>
          <line class="cls-1" x1="577.07" y1="91.37" x2="572.05" y2="94.23"/>
        </g>
        <g>
          <line class="cls-3" x1="285.17" y1="275.04" x2="285.17" y2="268.73"/>
          <line class="cls-15" x1="285.17" y1="256.24" x2="285.17" y2="12.55"/>
          <line class="cls-3" x1="285.17" y1="6.31" x2="285.17" y2="0"/>
        </g>
        <g>
          <line class="cls-3" x1="411" y1="114.77" x2="411" y2="108.46"/>
          <line class="cls-9" x1="411" y1="97.11" x2="411" y2="11.98"/>
          <line class="cls-3" x1="411" y1="6.31" x2="411" y2="0"/>
        </g>
        <g>
          <line class="cls-3" x1="496.19" y1="32.16" x2="496.19" y2="25.86"/>
          <line class="cls-4" x1="496.19" y1="19.34" x2="496.19" y2="9.56"/>
          <line class="cls-3" x1="496.19" y1="6.31" x2="496.19" y2="0"/>
        </g>
        <g>
          <line class="cls-3" x1="580.6" y1="80.89" x2="580.6" y2="74.59"/>
          <line class="cls-13" x1="580.6" y1="60.93" x2="580.6" y2="13.13"/>
          <line class="cls-3" x1="580.6" y1="6.31" x2="580.6" y2="0"/>
        </g>
      </g>
      <g>
        <ellipse class="cls-5" cx="215.57" cy="389.21" rx="30.11" ry="17.38" transform="translate(-2.11 1.17) rotate(-.31)"/>
        <path class="cls-18" d="m190.36,408.83c13.84,7.99,36.34,7.95,50.26-.09,13.92-8.04,13.99-21.03.16-29.02-13.84-7.99-36.34-7.95-50.26.09-13.92,8.04-13.99,21.03-.16,29.02Zm5.81-3.76c-10.65-6.15-10.6-15.74.12-21.93,10.71-6.18,28.03-6.22,38.68-.07,10.65,6.15,10.59,15.74-.12,21.93-10.71,6.18-28.03,6.22-38.68.07Z"/>
        <path class="cls-10" d="m190.36,403.76c13.84,7.99,36.34,7.95,50.26-.09,13.92-8.04,13.99-21.03.16-29.02-13.84-7.99-36.34-7.95-50.26.09-13.92,8.04-13.99,21.03-.16,29.02Zm5.81-3.35c-10.65-6.15-10.6-16.15.12-22.33,10.71-6.18,28.03-6.22,38.68-.07,10.65,6.15,10.59,16.14-.12,22.33-10.71,6.18-28.03,6.22-38.68.07Z"/>
        <g>
          <path class="cls-10" d="m187.16,404.28c.4-.33,1.01-.33,1.7.06,1.22.7,2.21,2.41,2.21,3.8,0,.69-.25,1.18-.64,1.41h0s-45.24,26.7-45.24,26.7c-.4.22-.95.19-1.55-.16-1.22-.7-2.2-2.41-2.2-3.8,0-.69.24-1.18.64-1.41l45.1-26.6Z"/>
          <ellipse class="cls-10" cx="143.62" cy="433.56" rx="1.79" ry="3.11" transform="translate(-199.18 131.75) rotate(-30.31)"/>
        </g>
        <g>
          <path class="cls-10" d="m181.06,406.8c.57-.46,1.42-.47,2.39.09,1.72.99,3.1,3.38,3.1,5.35,0,.98-.35,1.66-.9,1.98h0s-44.64,26.48-44.64,26.48c-.56.31-1.33.26-2.18-.23-1.71-.99-3.1-3.38-3.1-5.35,0-.98.34-1.66.9-1.98l44.45-26.34Z"/>
          <ellipse class="cls-18" cx="138.81" cy="436.92" rx="2.52" ry="4.37" transform="translate(-201.53 129.78) rotate(-30.31)"/>
        </g>
      </g>
      <g>
        <line class="cls-7" x1="672.84" y1="351.91" x2="672.84" y2="345.6"/>
        <line class="cls-12" x1="672.84" y1="333.04" x2="672.84" y2="12.59"/>
        <line class="cls-7" x1="672.84" y1="6.31" x2="672.84" y2="0"/>
      </g>
    </g>
  </g>
</svg>